<?xml version="1.0" encoding="UTF-8"?>
<!DOCTYPE svg PUBLIC "-//W3C//DTD SVG 1.1//EN" "http://www.w3.org/Graphics/SVG/1.1/DTD/svg11.dtd">
<!-- Creator: CorelDRAW X6 -->
<svg xmlns="http://www.w3.org/2000/svg" xml:space="preserve" width="800px" height="431px" version="1.1" style="shape-rendering:geometricPrecision; text-rendering:geometricPrecision; image-rendering:optimizeQuality; fill-rule:evenodd; clip-rule:evenodd" viewBox="0 0 800 431" xmlns:xlink="http://www.w3.org/1999/xlink">
 <defs>
  <style type="text/css">
   <![CDATA[
    .fil3 {fill:#FEFEFE;fill-rule:nonzero}
    .fil1 {fill:url(#id0)}
    .fil0 {fill:url(#id1)}
    .fil2 {fill:url(#id2)}
   ]]>
  </style>
  <linearGradient id="id0" gradientUnits="userSpaceOnUse" x1="220.166" y1="63.026" x2="663.207" y2="63.026">
   <stop offset="0" style="stop-color:#006CA2"/>
   <stop offset="1" style="stop-color:#3686CF"/>
  </linearGradient>
  <linearGradient id="id1" gradientUnits="userSpaceOnUse" xlink:href="#id0" x1="10.3389" y1="43.6496" x2="255.831" y2="43.6496">
  </linearGradient>
  <linearGradient id="id2" gradientUnits="userSpaceOnUse" xlink:href="#id0" x1="605.278" y1="204.36" x2="849.781" y2="297.846">
  </linearGradient>
 </defs>
 <g id="Layer_x0020_1">
  <metadata id="CorelCorpID_0Corel-Layer"/>
  <path class="fil0" d="M10 108c7,-47 164,-128 246,-37 -7,5 -20,22 -24,15 -15,-32 -139,-66 -222,22z"/>
  <path class="fil1" d="M220 100c192,-115 375,-16 393,57 13,-2 50,-3 38,-5 -57,-183 -365,-147 -431,-52z"/>
  <path class="fil2" d="M616 165c108,-15 217,118 93,215 136,-49 105,-258 -99,-232 2,6 4,12 6,17z"/>
  <path class="fil3" d="M186 252c7,0 15,2 21,6 6,3 11,9 15,15 3,7 5,14 5,23 0,2 0,4 0,5l-72 0c1,9 3,17 9,23 5,7 12,10 22,10 7,0 13,-2 18,-5 5,-2 9,-6 12,-11l10 7c-4,6 -9,11 -16,15 -7,3 -15,5 -24,5 -8,0 -16,-2 -23,-6 -6,-4 -11,-9 -15,-16 -4,-7 -6,-15 -6,-24 0,-9 2,-17 6,-25 4,-7 9,-12 15,-16 7,-4 14,-6 23,-6zm29 39c-2,-9 -5,-16 -10,-21 -4,-4 -11,-7 -19,-7 -9,0 -15,3 -20,8 -6,5 -9,12 -10,20l59 0z"/>
  <path id="1" class="fil3" d="M249 215l32 0c13,0 24,2 34,7 9,5 16,13 21,22 5,10 8,21 8,35 0,20 -6,35 -17,46 -11,12 -26,17 -46,17l-32 0 0 -127zm31 115c16,0 27,-5 36,-13 9,-8 13,-21 13,-38 0,-18 -4,-30 -13,-39 -9,-8 -20,-12 -36,-12l-17 0 0 102 17 0z"/>
  <path id="2" class="fil3" d="M447 255l0 87 -13 0 0 -13c-3,5 -8,9 -13,12 -5,3 -11,4 -17,4 -8,0 -16,-2 -22,-6 -7,-4 -12,-9 -16,-16 -4,-7 -6,-16 -6,-25 0,-9 2,-17 6,-24 4,-7 9,-12 15,-16 7,-4 14,-6 23,-6 6,0 12,1 17,4 5,3 10,7 13,12l0 -13 13 0zm-43 79c6,0 11,-2 16,-5 4,-3 8,-7 11,-12 2,-6 3,-12 3,-18 0,-7 -1,-13 -3,-19 -3,-5 -7,-9 -11,-12 -5,-3 -10,-5 -16,-5 -6,0 -11,2 -16,5 -5,3 -8,7 -11,12 -3,6 -4,12 -4,18 0,7 1,13 4,19 3,5 6,9 11,12 5,3 10,5 16,5z"/>
  <polygon id="3" class="fil3" points="475,342 475,266 460,266 460,255 475,255 475,226 488,226 488,255 508,255 508,266 488,266 488,342 "/>
  <path id="4" class="fil3" d="M604 255l0 87 -13 0 0 -13c-4,5 -8,9 -13,12 -6,3 -11,4 -18,4 -8,0 -15,-2 -22,-6 -7,-4 -12,-9 -16,-16 -3,-7 -5,-16 -5,-25 0,-9 2,-17 5,-24 4,-7 9,-12 16,-16 6,-4 14,-6 22,-6 6,0 12,1 17,4 6,3 10,7 14,12l0 -13 13 0zm-44 79c6,0 11,-2 16,-5 5,-3 8,-7 11,-12 3,-6 4,-12 4,-18 0,-7 -1,-13 -4,-19 -3,-5 -6,-9 -11,-12 -5,-3 -10,-5 -16,-5 -6,0 -11,2 -16,5 -4,3 -8,7 -11,12 -2,6 -3,12 -3,18 0,7 1,13 3,19 3,5 7,9 11,12 5,3 10,5 16,5z"/>
  <path class="fil3" d="M483 371c4,0 7,1 9,2 3,2 5,4 7,7 1,3 2,6 2,10 0,3 -1,6 -2,9 -2,3 -4,5 -7,7 -2,2 -5,2 -9,2 -2,0 -4,0 -7,-1 -2,-1 -3,-3 -5,-5l0 5 -5 0 0 -54 5 0 0 24c2,-2 3,-3 5,-5 3,-1 5,-1 7,-1zm0 33c3,0 5,-1 7,-2 2,-1 3,-3 4,-5 1,-2 2,-5 2,-7 0,-3 -1,-6 -2,-8 -1,-2 -2,-4 -4,-5 -2,-1 -4,-2 -7,-2 -2,0 -4,1 -6,2 -2,1 -3,3 -4,5 -1,2 -2,5 -2,8 0,2 1,5 2,7 1,2 2,4 4,5 2,1 4,2 6,2z"/>
  <path id="1" class="fil3" d="M523 371c3,0 6,1 9,2 2,2 4,4 6,6 1,3 2,6 2,9 0,1 0,2 0,3l-29 0c0,3 1,6 4,9 2,2 5,4 8,4 3,0 6,-1 8,-2 2,-1 3,-3 5,-5l4 3c-2,3 -4,5 -7,6 -3,2 -6,2 -9,2 -4,0 -7,0 -10,-2 -2,-2 -4,-4 -6,-7 -1,-3 -2,-6 -2,-9 0,-4 1,-7 2,-10 2,-3 4,-5 6,-7 3,-1 6,-2 9,-2zm12 15c-1,-3 -2,-6 -4,-8 -2,-2 -4,-3 -8,-3 -3,0 -6,2 -8,4 -2,2 -3,4 -4,7l24 0z"/>
  <polygon id="2" class="fil3" points="549,407 549,377 543,377 543,372 549,372 549,360 555,360 555,372 563,372 563,377 555,377 555,407 "/>
  <path id="3" class="fil3" d="M601 372l0 35 -5 0 0 -5c-2,2 -3,4 -5,5 -3,1 -5,1 -7,1 -4,0 -7,0 -9,-2 -3,-2 -5,-4 -7,-7 -1,-3 -2,-6 -2,-9 0,-4 1,-7 2,-10 2,-3 4,-5 7,-7 2,-1 5,-2 9,-2 2,0 4,0 7,1 2,2 3,3 5,5l0 -5 5 0zm-17 32c2,0 4,-1 6,-2 2,-1 3,-3 4,-5 1,-2 2,-5 2,-7 0,-3 -1,-6 -2,-8 -1,-2 -2,-4 -4,-5 -2,-1 -4,-2 -6,-2 -3,0 -5,1 -7,2 -2,1 -3,3 -4,5 -1,2 -2,5 -2,8 0,2 1,5 2,7 1,2 2,4 4,5 2,1 4,2 7,2z"/>
 </g>
</svg>